# xmcd
#
# Track frame offsets: 
#        150
#        19607
#        33178
#        52269
#        67022
#        89253
#        108417
#        126588
#        142236
#        161631
#        179101
#        196168
#        227068
#
# Disc length: 3204 seconds
#
# Revision: 0
# Processed by: cddbd v1.5.2PL0 Copyright (c) Steve Scherf et al.
# Submitted via: ExactAudioCopy v1.1
#
DISCID=c10c820d
DTITLE=Peter Karp - Blue Flame
DYEAR=2018
DGENRE=Blues Rock
TTITLE0=Rolling On A Log
TTITLE1=Train O' Mine
TTITLE2=Your Prettiness
TTITLE3=Valentine's Day
TTITLE4=Treat Me Right
TTITLE5=The Turning Point
TTITLE6=Loose Ends
TTITLE7=The Arson's Match
TTITLE8=From Where I Stand
TTITLE9=You Know
TTITLE10=The Nietzsche Lounge
TTITLE11=Round And Around
TTITLE12=Young Girl
EXTD=
EXTT0=
EXTT1=
EXTT2=
EXTT3=
EXTT4=
EXTT5=
EXTT6=
EXTT7=
EXTT8=
EXTT9=
EXTT10=
EXTT11=
EXTT12=
PLAYORDER=
